# xmcd CD database file
#
# Track frame offsets:
#	150
#	11725
#	23402
#	37873
#	53318
#	63307
#	74310
#	85823
#	104158
#	120040
#	136764
#	153281
#	165188
#	182198
#	196301
#	212316
#	227702
#	240602
#	257142
#	275780
#	291621
#
# Disc length: 4046 seconds
#
# Revision: 0
# Processed by: cddbd v1.5.2PL0 Copyright (c) Steve Scherf et al.
# Submitted via: CDex 1.51
#
DISCID=140fcc15
DTITLE=Frank Sinatra - Greatest Love Songs
DYEAR=1900
DGENRE=Jazz
TTITLE0=My Funny Valentine
TTITLE1=What Is This Thing Called Love?
TTITLE2=Like Someone In Love
TTITLE3=I've Got A Crush On You
TTITLE4=Let's Fall In Love
TTITLE5=You'd Be So Easy To Love
TTITLE6=Fly Me To The Moon (In Other Words)
TTITLE7=In The Blue Of The Evening
TTITLE8=Moonlight Serenade
TTITLE9=I'm Getting Sentimental Over You
TTITLE10=In The Still Of The Night
TTITLE11=You And The Night And The Music
TTITLE12=I Hadn't Anyone Till You
TTITLE13=My Heart Stood Still
TTITLE14=The Very Thought Of You
TTITLE15=The Way You Look Tonight
TTITLE16=You Brought A New Kind Of Love To Me
TTITLE17=Night and Day
TTITLE18=Come Rain Or Come Shine
TTITLE19=All The Way (w/ Celine Dion)
TTITLE20=Strangers In The Night
EXTD=
EXTT0=
EXTT1=
EXTT2=
EXTT3=
EXTT4=
EXTT5=
EXTT6=
EXTT7=
EXTT8=
EXTT9=
EXTT10=
EXTT11=
EXTT12=
EXTT13=
EXTT14=
EXTT15=
EXTT16=
EXTT17=
EXTT18=
EXTT19=
EXTT20=
PLAYORDER=
